<svg width="1366" height="643" xmlns="http://www.w3.org/2000/svg"><g><path d="M-53,-110L-124,356L-39,44Z" fill="#e4625b" stroke="#e4625b" fill-opacity="1" stroke-opacity="1"/><path d="M-53,-110L-39,44L63,-42Z" fill="#e93355" stroke="#e93355" fill-opacity="1" stroke-opacity="1"/><path d="M-53,-110L63,-42L230,-56Z" fill="#f03455" stroke="#f03455" fill-opacity="1" stroke-opacity="1"/><path d="M-53,-110L230,-56L349,-57Z" fill="#f84257" stroke="#f84257" fill-opacity="1" stroke-opacity="1"/><path d="M-53,-110L349,-57L977,-116Z" fill="#fe6b6c" stroke="#fe6b6c" fill-opacity="1" stroke-opacity="1"/><path d="M63,-42L-39,44L115,110Z" fill="#ee5d5a" stroke="#ee5d5a" fill-opacity="1" stroke-opacity="1"/><path d="M63,-42L115,110L206,41Z" fill="#f56a5c" stroke="#f56a5c" fill-opacity="1" stroke-opacity="1"/><path d="M63,-42L206,41L230,-56Z" fill="#f85959" stroke="#f85959" fill-opacity="1" stroke-opacity="1"/><path d="M230,-56L206,41L349,-57Z" fill="#fd675e" stroke="#fd675e" fill-opacity="1" stroke-opacity="1"/><path d="M349,-57L206,41L370,114Z" fill="#fe8967" stroke="#fe8967" fill-opacity="1" stroke-opacity="1"/><path d="M349,-57L370,114L519,-49Z" fill="#fe8e70" stroke="#fe8e70" fill-opacity="1" stroke-opacity="1"/><path d="M349,-57L519,-49L977,-116Z" fill="#f57c75" stroke="#f57c75" fill-opacity="1" stroke-opacity="1"/><path d="M519,-49L370,114L585,36Z" fill="#fca678" stroke="#fca678" fill-opacity="1" stroke-opacity="1"/><path d="M519,-49L585,36L718,-40Z" fill="#f69578" stroke="#f69578" fill-opacity="1" stroke-opacity="1"/><path d="M519,-49L718,-40L977,-116Z" fill="#e87e77" stroke="#e87e77" fill-opacity="1" stroke-opacity="1"/><path d="M718,-40L585,36L695,94Z" fill="#f3ac7c" stroke="#f3ac7c" fill-opacity="1" stroke-opacity="1"/><path d="M718,-40L695,94L776,76Z" fill="#eaaf7d" stroke="#eaaf7d" fill-opacity="1" stroke-opacity="1"/><path d="M718,-40L776,76L880,-56Z" fill="#e0957a" stroke="#e0957a" fill-opacity="1" stroke-opacity="1"/><path d="M718,-40L880,-56L977,-116Z" fill="#d47476" stroke="#d47476" fill-opacity="1" stroke-opacity="1"/><path d="M880,-56L776,76L998,96Z" fill="#d0a37b" stroke="#d0a37b" fill-opacity="1" stroke-opacity="1"/><path d="M880,-56L998,96L977,-116Z" fill="#c27e7b" stroke="#c27e7b" fill-opacity="1" stroke-opacity="1"/><path d="M977,-116L998,96L1156,-35Z" fill="#ae7184" stroke="#ae7184" fill-opacity="1" stroke-opacity="1"/><path d="M977,-116L1156,-35L1220,-88Z" fill="#9c4a87" stroke="#9c4a87" fill-opacity="1" stroke-opacity="1"/><path d="M977,-116L1220,-88L1576,-102Z" fill="#7f3093" stroke="#7f3093" fill-opacity="1" stroke-opacity="1"/><path d="M1156,-35L998,96L1093,97Z" fill="#a58a8c" stroke="#a58a8c" fill-opacity="1" stroke-opacity="1"/><path d="M1156,-35L1093,97L1317,89Z" fill="#8d7795" stroke="#8d7795" fill-opacity="1" stroke-opacity="1"/><path d="M1156,-35L1317,89L1220,-88Z" fill="#835596" stroke="#835596" fill-opacity="1" stroke-opacity="1"/><path d="M1220,-88L1317,89L1462,-89Z" fill="#7f3b9e" stroke="#7f3b9e" fill-opacity="1" stroke-opacity="1"/><path d="M1220,-88L1462,-89L1576,-102Z" fill="#7f15a2" stroke="#7f15a2" fill-opacity="1" stroke-opacity="1"/><path d="M1462,-89L1317,89L1437,102Z" fill="#7f4ba8" stroke="#7f4ba8" fill-opacity="1" stroke-opacity="1"/><path d="M1462,-89L1437,102L1576,-102Z" fill="#7f20ac" stroke="#7f20ac" fill-opacity="1" stroke-opacity="1"/><path d="M1576,-102L1437,102L1622,120Z" fill="#7f37b1" stroke="#7f37b1" fill-opacity="1" stroke-opacity="1"/><path d="M-39,44L-124,356L-40,276Z" fill="#e4937a" stroke="#e4937a" fill-opacity="1" stroke-opacity="1"/><path d="M-39,44L-40,276L115,110Z" fill="#eb8467" stroke="#eb8467" fill-opacity="1" stroke-opacity="1"/><path d="M115,110L-40,276L109,285Z" fill="#f0a97d" stroke="#f0a97d" fill-opacity="1" stroke-opacity="1"/><path d="M115,110L109,285L257,266Z" fill="#f8bb7f" stroke="#f8bb7f" fill-opacity="1" stroke-opacity="1"/><path d="M115,110L257,266L206,41Z" fill="#fba26a" stroke="#fba26a" fill-opacity="1" stroke-opacity="1"/><path d="M206,41L257,266L370,114Z" fill="#feb171" stroke="#feb171" fill-opacity="1" stroke-opacity="1"/><path d="M370,114L257,266L414,241Z" fill="#fed98b" stroke="#fed98b" fill-opacity="1" stroke-opacity="1"/><path d="M370,114L414,241L560,227Z" fill="#ffe692" stroke="#ffe692" fill-opacity="1" stroke-opacity="1"/><path d="M370,114L560,227L585,36Z" fill="#fcce81" stroke="#fcce81" fill-opacity="1" stroke-opacity="1"/><path d="M585,36L560,227L635,216Z" fill="#f7e08d" stroke="#f7e08d" fill-opacity="1" stroke-opacity="1"/><path d="M585,36L635,216L695,94Z" fill="#f5d082" stroke="#f5d082" fill-opacity="1" stroke-opacity="1"/><path d="M695,94L635,216L776,76Z" fill="#f0d687" stroke="#f0d687" fill-opacity="1" stroke-opacity="1"/><path d="M776,76L635,216L880,284Z" fill="#e5ec98" stroke="#e5ec98" fill-opacity="1" stroke-opacity="1"/><path d="M776,76L880,284L998,96Z" fill="#d1d38c" stroke="#d1d38c" fill-opacity="1" stroke-opacity="1"/><path d="M998,96L880,284L972,271Z" fill="#c3e4a1" stroke="#c3e4a1" fill-opacity="1" stroke-opacity="1"/><path d="M998,96L972,271L1098,224Z" fill="#b3d0a2" stroke="#b3d0a2" fill-opacity="1" stroke-opacity="1"/><path d="M998,96L1098,224L1093,97Z" fill="#aab296" stroke="#aab296" fill-opacity="1" stroke-opacity="1"/><path d="M1093,97L1098,224L1279,206Z" fill="#95b1a8" stroke="#95b1a8" fill-opacity="1" stroke-opacity="1"/><path d="M1093,97L1279,206L1317,89Z" fill="#8492a2" stroke="#8492a2" fill-opacity="1" stroke-opacity="1"/><path d="M1317,89L1279,206L1376,205Z" fill="#8091b5" stroke="#8091b5" fill-opacity="1" stroke-opacity="1"/><path d="M1317,89L1376,205L1437,102Z" fill="#807ab0" stroke="#807ab0" fill-opacity="1" stroke-opacity="1"/><path d="M1437,102L1376,205L1608,279Z" fill="#8084ca" stroke="#8084ca" fill-opacity="1" stroke-opacity="1"/><path d="M1437,102L1608,279L1622,120Z" fill="#806dc5" stroke="#806dc5" fill-opacity="1" stroke-opacity="1"/><path d="M1622,120L1608,279L1606,688Z" fill="#7280d9" stroke="#7280d9" fill-opacity="1" stroke-opacity="1"/><path d="M-40,276L-124,356L37,415Z" fill="#dd9781" stroke="#dd9781" fill-opacity="1" stroke-opacity="1"/><path d="M-40,276L37,415L109,285Z" fill="#eca583" stroke="#eca583" fill-opacity="1" stroke-opacity="1"/><path d="M109,285L37,415L222,379Z" fill="#e8b484" stroke="#e8b484" fill-opacity="1" stroke-opacity="1"/><path d="M109,285L222,379L257,266Z" fill="#fbc186" stroke="#fbc186" fill-opacity="1" stroke-opacity="1"/><path d="M257,266L222,379L423,397Z" fill="#f5d48f" stroke="#f5d48f" fill-opacity="1" stroke-opacity="1"/><path d="M257,266L423,397L414,241Z" fill="#fedf95" stroke="#fedf95" fill-opacity="1" stroke-opacity="1"/><path d="M414,241L423,397L521,407Z" fill="#f6ef9f" stroke="#f6ef9f" fill-opacity="1" stroke-opacity="1"/><path d="M414,241L521,407L560,227Z" fill="#fcf29f" stroke="#fcf29f" fill-opacity="1" stroke-opacity="1"/><path d="M560,227L521,407L723,365Z" fill="#f3f6a4" stroke="#f3f6a4" fill-opacity="1" stroke-opacity="1"/><path d="M560,227L723,365L635,216Z" fill="#f5f8a2" stroke="#f5f8a2" fill-opacity="1" stroke-opacity="1"/><path d="M635,216L723,365L880,284Z" fill="#e8f6a4" stroke="#e8f6a4" fill-opacity="1" stroke-opacity="1"/><path d="M880,284L723,365L861,410Z" fill="#d1f1a5" stroke="#d1f1a5" fill-opacity="1" stroke-opacity="1"/><path d="M880,284L861,410L958,424Z" fill="#bdeba4" stroke="#bdeba4" fill-opacity="1" stroke-opacity="1"/><path d="M880,284L958,424L972,271Z" fill="#c5e6a7" stroke="#c5e6a7" fill-opacity="1" stroke-opacity="1"/><path d="M972,271L958,424L1138,429Z" fill="#a1d7ae" stroke="#a1d7ae" fill-opacity="1" stroke-opacity="1"/><path d="M972,271L1138,429L1098,224Z" fill="#a8cfb2" stroke="#a8cfb2" fill-opacity="1" stroke-opacity="1"/><path d="M1098,224L1138,429L1249,403Z" fill="#89c0bb" stroke="#89c0bb" fill-opacity="1" stroke-opacity="1"/><path d="M1098,224L1249,403L1279,206Z" fill="#89b8bd" stroke="#89b8bd" fill-opacity="1" stroke-opacity="1"/><path d="M1279,206L1249,403L1377,354Z" fill="#80a8c8" stroke="#80a8c8" fill-opacity="1" stroke-opacity="1"/><path d="M1279,206L1377,354L1376,205Z" fill="#80a1c7" stroke="#80a1c7" fill-opacity="1" stroke-opacity="1"/><path d="M1376,205L1377,354L1584,332Z" fill="#8090d3" stroke="#8090d3" fill-opacity="1" stroke-opacity="1"/><path d="M1376,205L1584,332L1608,279Z" fill="#8083d7" stroke="#8083d7" fill-opacity="1" stroke-opacity="1"/><path d="M1608,279L1584,332L1606,688Z" fill="#597dd9" stroke="#597dd9" fill-opacity="1" stroke-opacity="1"/><path d="M-124,356L-64,710L-90,480Z" fill="#8c6992" stroke="#8c6992" fill-opacity="1" stroke-opacity="1"/><path d="M-124,356L-90,480L37,415Z" fill="#c5947f" stroke="#c5947f" fill-opacity="1" stroke-opacity="1"/><path d="M37,415L-90,480L59,569Z" fill="#a4858d" stroke="#a4858d" fill-opacity="1" stroke-opacity="1"/><path d="M37,415L59,569L222,379Z" fill="#c0a688" stroke="#c0a688" fill-opacity="1" stroke-opacity="1"/><path d="M222,379L59,569L256,546Z" fill="#ad9f94" stroke="#ad9f94" fill-opacity="1" stroke-opacity="1"/><path d="M222,379L256,546L423,397Z" fill="#d3ce8f" stroke="#d3ce8f" fill-opacity="1" stroke-opacity="1"/><path d="M423,397L256,546L376,560Z" fill="#b0bda3" stroke="#b0bda3" fill-opacity="1" stroke-opacity="1"/><path d="M423,397L376,560L489,467Z" fill="#c0d7a5" stroke="#c0d7a5" fill-opacity="1" stroke-opacity="1"/><path d="M423,397L489,467L521,407Z" fill="#dbf09e" stroke="#dbf09e" fill-opacity="1" stroke-opacity="1"/><path d="M521,407L489,467L682,556Z" fill="#b9e0ac" stroke="#b9e0ac" fill-opacity="1" stroke-opacity="1"/><path d="M521,407L682,556L723,365Z" fill="#c8f2a6" stroke="#c8f2a6" fill-opacity="1" stroke-opacity="1"/><path d="M723,365L682,556L808,554Z" fill="#a1dbb2" stroke="#a1dbb2" fill-opacity="1" stroke-opacity="1"/><path d="M723,365L808,554L861,410Z" fill="#b3eca7" stroke="#b3eca7" fill-opacity="1" stroke-opacity="1"/><path d="M861,410L808,554L958,424Z" fill="#9adeab" stroke="#9adeab" fill-opacity="1" stroke-opacity="1"/><path d="M958,424L808,554L1021,550Z" fill="#75c4b6" stroke="#75c4b6" fill-opacity="1" stroke-opacity="1"/><path d="M958,424L1021,550L1138,429Z" fill="#74c4b7" stroke="#74c4b7" fill-opacity="1" stroke-opacity="1"/><path d="M1138,429L1021,550L1142,539Z" fill="#50a9c5" stroke="#50a9c5" fill-opacity="1" stroke-opacity="1"/><path d="M1138,429L1142,539L1283,516Z" fill="#439eca" stroke="#439eca" fill-opacity="1" stroke-opacity="1"/><path d="M1138,429L1283,516L1249,403Z" fill="#55acc3" stroke="#55acc3" fill-opacity="1" stroke-opacity="1"/><path d="M1249,403L1283,516L1377,354Z" fill="#5da7c6" stroke="#5da7c6" fill-opacity="1" stroke-opacity="1"/><path d="M1377,354L1283,516L1471,543Z" fill="#4389d6" stroke="#4389d6" fill-opacity="1" stroke-opacity="1"/><path d="M1377,354L1471,543L1584,332Z" fill="#628ad6" stroke="#628ad6" fill-opacity="1" stroke-opacity="1"/><path d="M1584,332L1471,543L1527,562Z" fill="#3e6ce3" stroke="#3e6ce3" fill-opacity="1" stroke-opacity="1"/><path d="M1584,332L1527,562L1606,688Z" fill="#2355ee" stroke="#2355ee" fill-opacity="1" stroke-opacity="1"/><path d="M-90,480L-64,710L59,569Z" fill="#6955a3" stroke="#6955a3" fill-opacity="1" stroke-opacity="1"/><path d="M59,569L-64,710L53,724Z" fill="#6c3ba8" stroke="#6c3ba8" fill-opacity="1" stroke-opacity="1"/><path d="M59,569L53,724L267,630Z" fill="#7659aa" stroke="#7659aa" fill-opacity="1" stroke-opacity="1"/><path d="M59,569L267,630L256,546Z" fill="#7e7ea7" stroke="#7e7ea7" fill-opacity="1" stroke-opacity="1"/><path d="M256,546L267,630L376,560Z" fill="#8492af" stroke="#8492af" fill-opacity="1" stroke-opacity="1"/><path d="M376,560L267,630L364,682Z" fill="#7f85b8" stroke="#7f85b8" fill-opacity="1" stroke-opacity="1"/><path d="M376,560L364,682L546,634Z" fill="#7f96c2" stroke="#7f96c2" fill-opacity="1" stroke-opacity="1"/><path d="M376,560L546,634L489,467Z" fill="#92babb" stroke="#92babb" fill-opacity="1" stroke-opacity="1"/><path d="M489,467L546,634L682,556Z" fill="#8dc0be" stroke="#8dc0be" fill-opacity="1" stroke-opacity="1"/><path d="M682,556L546,634L709,731Z" fill="#759dcb" stroke="#759dcb" fill-opacity="1" stroke-opacity="1"/><path d="M682,556L709,731L808,554Z" fill="#6ba7cb" stroke="#6ba7cb" fill-opacity="1" stroke-opacity="1"/><path d="M808,554L709,731L850,626Z" fill="#6199cb" stroke="#6199cb" fill-opacity="1" stroke-opacity="1"/><path d="M808,554L850,626L965,631Z" fill="#53a1ca" stroke="#53a1ca" fill-opacity="1" stroke-opacity="1"/><path d="M808,554L965,631L1021,550Z" fill="#4da6c6" stroke="#4da6c6" fill-opacity="1" stroke-opacity="1"/><path d="M1021,550L965,631L1185,697Z" fill="#2c7dd7" stroke="#2c7dd7" fill-opacity="1" stroke-opacity="1"/><path d="M1021,550L1185,697L1142,539Z" fill="#1e80db" stroke="#1e80db" fill-opacity="1" stroke-opacity="1"/><path d="M1142,539L1185,697L1283,516Z" fill="#0d76e0" stroke="#0d76e0" fill-opacity="1" stroke-opacity="1"/><path d="M1283,516L1185,697L1329,639Z" fill="#005dea" stroke="#005dea" fill-opacity="1" stroke-opacity="1"/><path d="M1283,516L1329,639L1471,543Z" fill="#0c63ea" stroke="#0c63ea" fill-opacity="1" stroke-opacity="1"/><path d="M1471,543L1329,639L1382,725Z" fill="#003ff5" stroke="#003ff5" fill-opacity="1" stroke-opacity="1"/><path d="M1471,543L1382,725L1527,562Z" fill="#003ffb" stroke="#003ffb" fill-opacity="1" stroke-opacity="1"/><path d="M1527,562L1382,725L1431,776Z" fill="#0020fa" stroke="#0020fa" fill-opacity="1" stroke-opacity="1"/><path d="M1527,562L1431,776L1606,688Z" fill="#0018ff" stroke="#0018ff" fill-opacity="1" stroke-opacity="1"/><path d="M-64,710L-30,788L53,724Z" fill="#6a1da7" stroke="#6a1da7" fill-opacity="1" stroke-opacity="1"/><path d="M53,724L-30,788L71,882Z" fill="#6d25a8" stroke="#6d25a8" fill-opacity="1" stroke-opacity="1"/><path d="M53,724L71,882L172,877Z" fill="#7330a9" stroke="#7330a9" fill-opacity="1" stroke-opacity="1"/><path d="M53,724L172,877L267,630Z" fill="#793cab" stroke="#793cab" fill-opacity="1" stroke-opacity="1"/><path d="M267,630L172,877L364,682Z" fill="#7e4eb1" stroke="#7e4eb1" fill-opacity="1" stroke-opacity="1"/><path d="M364,682L172,877L425,868Z" fill="#7f58b6" stroke="#7f58b6" fill-opacity="1" stroke-opacity="1"/><path d="M364,682L425,868L475,842Z" fill="#7f6ac2" stroke="#7f6ac2" fill-opacity="1" stroke-opacity="1"/><path d="M364,682L475,842L546,634Z" fill="#7f73c5" stroke="#7f73c5" fill-opacity="1" stroke-opacity="1"/><path d="M546,634L475,842L681,812Z" fill="#7975c8" stroke="#7975c8" fill-opacity="1" stroke-opacity="1"/><path d="M546,634L681,812L709,731Z" fill="#7579cb" stroke="#7579cb" fill-opacity="1" stroke-opacity="1"/><path d="M709,731L681,812L857,821Z" fill="#6876cb" stroke="#6876cb" fill-opacity="1" stroke-opacity="1"/><path d="M709,731L857,821L850,626Z" fill="#5f72cb" stroke="#5f72cb" fill-opacity="1" stroke-opacity="1"/><path d="M850,626L857,821L965,631Z" fill="#507aca" stroke="#507aca" fill-opacity="1" stroke-opacity="1"/><path d="M965,631L857,821L1013,842Z" fill="#4565cd" stroke="#4565cd" fill-opacity="1" stroke-opacity="1"/><path d="M965,631L1013,842L1185,697Z" fill="#2c53d7" stroke="#2c53d7" fill-opacity="1" stroke-opacity="1"/><path d="M1185,697L1013,842L1072,876Z" fill="#244cda" stroke="#244cda" fill-opacity="1" stroke-opacity="1"/><path d="M1185,697L1072,876L1254,789Z" fill="#123fe1" stroke="#123fe1" fill-opacity="1" stroke-opacity="1"/><path d="M1185,697L1254,789L1329,639Z" fill="#0037e9" stroke="#0037e9" fill-opacity="1" stroke-opacity="1"/><path d="M1329,639L1254,789L1382,725Z" fill="#0028ef" stroke="#0028ef" fill-opacity="1" stroke-opacity="1"/><path d="M1382,725L1254,789L1431,776Z" fill="#001ff2" stroke="#001ff2" fill-opacity="1" stroke-opacity="1"/><path d="M1606,688L1431,776L1533,814Z" fill="#0003ff" stroke="#0003ff" fill-opacity="1" stroke-opacity="1"/><path d="M71,882L1072,876L172,877Z" fill="#7f6dc3" stroke="#7f6dc3" fill-opacity="1" stroke-opacity="1"/><path d="M172,877L1072,876L425,868Z" fill="#7a75c8" stroke="#7a75c8" fill-opacity="1" stroke-opacity="1"/><path d="M425,868L1072,876L857,821Z" fill="#6274cb" stroke="#6274cb" fill-opacity="1" stroke-opacity="1"/><path d="M425,868L857,821L681,812Z" fill="#7579cb" stroke="#7579cb" fill-opacity="1" stroke-opacity="1"/><path d="M425,868L681,812L475,842Z" fill="#7b74c7" stroke="#7b74c7" fill-opacity="1" stroke-opacity="1"/><path d="M857,821L1072,876L1013,842Z" fill="#3d5fd0" stroke="#3d5fd0" fill-opacity="1" stroke-opacity="1"/><path d="M1072,876L1533,814L1254,789Z" fill="#002bec" stroke="#002bec" fill-opacity="1" stroke-opacity="1"/><path d="M1254,789L1533,814L1431,776Z" fill="#0017f6" stroke="#0017f6" fill-opacity="1" stroke-opacity="1"/></g></svg>